<?xml version="1.0" standalone="no"?>
<!DOCTYPE svg PUBLIC "-//W3C//DTD SVG 20010904//EN"
 "http://www.w3.org/TR/2001/REC-SVG-20010904/DTD/svg10.dtd">
<svg version="1.0" xmlns="http://www.w3.org/2000/svg"
 width="30.000000pt" height="30.000000pt" viewBox="0 0 512.000000 512.000000"
 preserveAspectRatio="xMidYMid meet">

<g transform="translate(0.000000,512.000000) scale(0.100000,-0.100000)"
fill="#000000" stroke="none">
<path d="M367 4763 c-62 -21 -131 -82 -165 -147 l-27 -51 -3 -737 -3 -738
2391 0 2391 0 -3 733 -3 732 -24 53 c-31 69 -106 137 -174 157 -35 10 -96 15
-199 15 l-148 0 0 -107 c0 -119 -10 -151 -52 -171 -22 -10 -33 -10 -62 2 -44
18 -56 57 -56 184 l0 92 -210 0 -210 0 0 -117 c-1 -77 -5 -124 -13 -134 -34
-45 -92 -46 -127 -2 -17 22 -20 41 -20 139 l0 114 -210 0 -210 0 0 -107 c0
-118 -10 -151 -52 -170 -31 -15 -83 -1 -98 27 -5 10 -13 70 -16 134 l-7 116
-209 0 -208 0 0 -117 c-1 -77 -5 -124 -13 -134 -34 -45 -92 -46 -127 -2 -17
22 -20 41 -20 139 l0 114 -210 0 -210 0 0 -113 c0 -122 -9 -150 -56 -167 -29
-11 -81 5 -94 30 -5 10 -13 70 -16 134 l-7 116 -209 0 -208 0 0 -114 c0 -63
-3 -122 -6 -131 -10 -24 -60 -46 -89 -39 -53 13 -65 45 -65 170 l0 114 -210 0
-210 0 0 -113 c0 -122 -9 -150 -56 -167 -29 -11 -81 5 -94 30 -5 10 -13 70
-16 134 l-7 116 -151 -1 c-110 0 -164 -5 -199 -16z m1474 -1028 c49 -132 89
-241 89 -243 0 -2 -19 -2 -42 0 -40 3 -42 5 -58 53 l-17 50 -96 3 -96 3 -17
-56 c-17 -54 -18 -55 -56 -55 -21 0 -38 3 -38 8 0 4 39 114 87 245 l88 238 33
-3 34 -3 89 -240z m1719 160 c0 -54 0 -55 30 -55 27 0 30 -3 30 -30 0 -27 -3
-30 -30 -30 l-31 0 3 -107 c3 -103 4 -108 26 -111 18 -3 22 -10 22 -38 0 -33
-1 -34 -39 -34 -31 0 -44 6 -60 26 -19 24 -21 40 -21 145 0 112 -1 119 -20
119 -16 0 -20 7 -20 30 0 23 4 30 20 30 18 0 20 7 20 55 l0 55 35 0 35 0 0
-55z m-1016 -66 c21 -17 26 -18 26 -5 0 12 10 16 35 16 l35 0 0 -197 c0 -181
-2 -201 -20 -231 -45 -73 -184 -84 -238 -19 -9 11 -7 19 13 37 23 22 26 22 43
7 22 -20 81 -22 105 -4 10 6 20 29 23 49 l6 37 -41 -21 c-37 -18 -45 -19 -82
-6 -64 20 -82 52 -87 152 -5 99 7 145 49 181 39 32 95 34 133 4z m814 -3 c37
-19 39 -26 14 -55 -16 -21 -19 -21 -54 -7 -41 17 -95 21 -116 7 -8 -4 -12 -19
-10 -32 3 -21 10 -24 81 -34 99 -14 122 -34 122 -105 0 -41 -5 -54 -28 -77
-24 -24 -36 -28 -101 -31 -58 -3 -83 0 -120 16 -50 23 -57 39 -25 68 17 16 23
16 41 5 58 -36 140 -35 159 1 17 31 -9 48 -85 58 -37 4 -78 15 -91 24 -53 35
-36 143 27 172 41 18 141 13 186 -10z m-1298 -84 c0 -102 11 -160 32 -174 7
-4 27 -8 45 -8 53 0 63 26 63 162 l0 118 35 0 35 0 0 -175 0 -175 -35 0 c-25
0 -35 4 -35 16 0 14 -2 14 -22 0 -29 -21 -107 -20 -137 0 -40 29 -51 73 -51
209 l0 125 35 0 35 0 0 -98z m760 -26 c0 -139 7 -156 62 -156 60 0 68 18 68
157 l0 123 40 0 40 0 -2 -172 -3 -173 -37 -3 c-30 -3 -38 0 -38 13 0 15 -2 15
-22 1 -13 -9 -43 -16 -71 -16 -41 0 -53 5 -77 30 -35 37 -40 65 -40 206 l0
114 40 0 40 0 0 -124z"/>
<path d="M1686 3783 c-16 -49 -31 -94 -33 -100 -4 -10 13 -13 66 -13 l70 0
-30 88 c-17 48 -34 93 -38 100 -4 7 -19 -26 -35 -75z"/>
<path d="M2457 3762 c-13 -14 -17 -38 -17 -93 0 -82 10 -104 52 -114 21 -5 33
-1 52 19 23 22 26 34 26 93 0 84 -16 113 -64 113 -19 0 -40 -8 -49 -18z"/>
<path d="M1823 2690 c-213 -39 -359 -181 -418 -408 -25 -99 -33 -92 119 -92
l134 0 7 37 c10 57 51 128 92 162 112 93 310 73 388 -38 29 -41 30 -48 30
-144 0 -96 -2 -106 -36 -177 -24 -52 -143 -218 -382 -538 l-347 -462 0 -115 0
-115 530 0 530 0 0 125 0 125 -355 2 -356 3 217 295 c399 541 404 549 446 670
69 201 28 420 -101 543 -62 59 -116 88 -206 112 -75 19 -223 27 -292 15z"/>
<path d="M2992 2213 c-233 -471 -260 -537 -287 -691 -72 -410 92 -692 425
-733 181 -23 343 24 450 131 107 107 150 233 150 434 0 140 -17 233 -59 323
-38 81 -122 166 -197 199 -109 48 -261 52 -344 9 -16 -8 -30 -13 -30 -10 0 4
335 661 401 788 9 16 0 17 -133 17 l-144 0 -232 -467z m323 -572 c55 -25 93
-66 124 -131 23 -49 26 -67 26 -170 0 -106 -2 -120 -28 -173 -45 -92 -114
-130 -232 -129 -80 1 -138 25 -186 79 -52 57 -64 101 -64 223 1 162 45 258
139 301 55 25 167 25 221 0z"/>
</g>
</svg>
