<?xml version="1.0" standalone="no"?>
<!DOCTYPE svg PUBLIC "-//W3C//DTD SVG 20010904//EN"
 "http://www.w3.org/TR/2001/REC-SVG-20010904/DTD/svg10.dtd">
<svg version="1.0" xmlns="http://www.w3.org/2000/svg"
 width="64.000000pt" height="64.000000pt" viewBox="0 0 64.000000 64.000000"
 preserveAspectRatio="xMidYMid meet">

<g transform="translate(0.000000,64.000000) scale(0.100000,-0.100000)"
fill="#000000" stroke="none">
<path d="M545 620 c-11 -4 -61 -50 -111 -102 -75 -75 -95 -103 -109 -146 -9
-29 -15 -56 -12 -58 3 -3 30 2 60 12 47 15 70 31 150 113 52 53 98 106 102
118 4 17 -1 29 -19 48 -27 27 -31 28 -61 15z m55 -39 c18 -34 -5 -42 -34 -12
-20 20 -24 30 -14 33 18 7 37 -1 48 -21z m-26 -63 c-4 -5 -19 3 -35 18 -15 15
-26 31 -23 36 4 5 19 -3 35 -18 15 -15 26 -31 23 -36z m-86 -85 l-62 -63 -28
27 -28 27 62 63 62 63 28 -27 28 -27 -62 -63z m-103 -53 c21 -23 20 -26 -18
-35 -28 -8 -31 -4 -21 33 8 27 16 28 39 2z"/>
<path d="M300 290 c0 -6 -48 -10 -124 -10 -130 0 -156 -8 -156 -48 1 -46 4
-47 297 -52 l278 -5 0 -25 0 -25 -133 -5 c-138 -5 -151 -10 -152 -52 0 -29 29
-48 76 -48 59 0 56 18 -3 22 -44 3 -48 5 -48 28 l0 25 133 5 c136 5 152 10
152 50 0 44 -6 45 -297 50 l-278 5 0 25 0 25 135 5 c118 4 135 7 138 23 2 9
-1 17 -7 17 -6 0 -11 -4 -11 -10z"/>
</g>
</svg>
