<?xml version="1.0" standalone="no"?>
<!DOCTYPE svg PUBLIC "-//W3C//DTD SVG 20010904//EN"
 "http://www.w3.org/TR/2001/REC-SVG-20010904/DTD/svg10.dtd">
<svg version="1.0" xmlns="http://www.w3.org/2000/svg"
 width="68.000000pt" height="68.000000pt" viewBox="0 0 68.000000 68.000000"
 preserveAspectRatio="xMidYMid meet">

<g transform="translate(0.000000,68.000000) scale(0.100000,-0.100000)"
fill="#000000" stroke="none">
<path d="M212 628 c-7 -7 -12 -22 -12 -34 0 -15 -8 -24 -23 -28 -76 -19 -116
-94 -117 -216 0 -67 -4 -92 -20 -118 -28 -46 -26 -52 24 -52 68 0 101 -10 111
-33 25 -56 103 -60 133 -7 34 60 112 28 126 -52 4 -21 11 -40 17 -43 14 -9
199 55 205 70 3 7 -2 27 -10 44 -9 16 -16 45 -16 64 0 46 -29 126 -50 139 -17
11 -17 13 6 31 30 23 32 67 3 93 -17 15 -40 20 -112 23 -78 3 -96 7 -119 26
-15 13 -37 26 -48 30 -11 3 -20 15 -20 25 0 39 -52 64 -78 38z m115 -94 l28
-19 -42 -5 c-52 -8 -83 -34 -83 -71 0 -37 41 -69 91 -69 34 0 39 -3 49 -34 6
-19 8 -46 4 -60 l-6 -26 -144 0 -144 0 0 89 c0 124 23 174 95 207 39 18 116
12 152 -12z m3 -64 c11 -11 20 -24 20 -30 0 -15 -38 -50 -54 -50 -20 0 -46 28
-46 50 0 17 34 50 52 50 5 0 17 -9 28 -20z m95 -139 c11 -34 25 -61 30 -60 6
1 9 10 7 20 -4 26 18 35 25 10 3 -12 10 -21 15 -21 6 0 8 9 5 20 -7 25 13 38
25 16 12 -21 28 -21 25 2 -1 9 2 19 8 22 14 7 47 -88 43 -124 -3 -29 -8 -33
-78 -57 -70 -25 -76 -26 -94 -10 -21 18 -46 71 -46 98 0 15 2 15 15 -3 21 -28
19 0 -5 71 -23 67 -25 88 -8 83 6 -2 21 -32 33 -67z m120 29 c-3 -5 -15 -10
-25 -10 -10 0 -21 -4 -24 -8 -9 -15 -51 -6 -54 11 -3 14 6 17 53 17 35 0 54
-4 50 -10z"/>
<path d="M287 464 c-4 -4 -7 -16 -7 -26 0 -20 25 -25 36 -7 8 13 -19 43 -29
33z"/>
</g>
</svg>
